<svg xmlns="http://www.w3.org/2000/svg" xmlns:xlink="http://www.w3.org/1999/xlink" version="1.1">
  <symbol viewBox="25 -20 50 140" id="hand-icon">
    <path d="M41,58.4c-4.4,0-8,3.6-8,8s3.6,8,8,8c4.4,0,8-3.6,8-8S45.4,58.4,41,58.4z M41,71.9c-3,0-5.5-2.5-5.5-5.5   c0-3,2.5-5.5,5.5-5.5c3,0,5.5,2.5,5.5,5.5C46.5,69.4,44,71.9,41,71.9z" />
    <path d="M83.3,54.6c0-1.2-0.5-2.3-1.3-3.2c-0.5-0.5-1.1-0.9-1.8-1.1c1.3-1.8,1.1-4.2-0.5-5.8c-0.5-0.5-1.2-0.9-1.8-1.1   c1.3-1.8,1.1-4.2-0.5-5.8c-1.6-1.6-4-1.7-5.8-0.5c-0.2-0.7-0.6-1.3-1.1-1.8c-1.7-1.8-4.6-1.8-6.3,0h0l-6.7,6.7V16   c0-2.5-2-4.5-4.5-4.5c-0.7,0-1.4,0.2-2.1,0.5c-0.4-2.1-2.2-3.8-4.4-3.8c-0.7,0-1.4,0.2-2.1,0.5C44.2,6.6,42.3,5,40.1,5   c-2.2,0-4.1,1.6-4.4,3.8c-0.6-0.3-1.3-0.5-2.1-0.5c-2.5,0-4.5,2-4.5,4.5v19.7c0,0.9-0.8,1.7-1.7,1.7s-1.7-0.8-1.7-1.7v-9.2h0   c0-2.3-1.9-4.2-4.2-4.2c-2.3,0-4.2,1.9-4.2,4.2v37.3c0,2,0.3,3.9,0.9,5.7l0,0.1l0,0.1c-1.1,2.4-1.6,5.1-1.5,7.7l0,0.4   c0,11.3,9.2,20.4,20.4,20.4c5.1,0,10-1.9,13.8-5.4l1.2-1.2L82,57.8l0,0C82.9,56.9,83.3,55.8,83.3,54.6z M77.9,46.3   c0.8,0.8,0.8,2,0,2.8l-2.3,2.3c0,0,0,0,0,0l0,0l-13,13c-0.7-1.1-1.6-2.2-2.5-3.2l15-15C75.9,45.6,77.2,45.6,77.9,46.3z M29.8,66.4   c0-6.1,5-11.1,11.1-11.1c6.1,0,11.1,5,11.1,11.1c0,6.1-5,11.1-11.1,11.1C34.8,77.5,29.8,72.5,29.8,66.4z M30.5,75   c-3.8-1.9-7.1-4.9-9.5-8.6c2.3-3.7,5.6-6.7,9.5-8.6c-1.9,2.3-3.1,5.4-3.1,8.6C27.4,69.6,28.5,72.7,30.5,75z M54.6,66.4   c0-3.3-1.2-6.3-3.1-8.6c3.8,1.9,7.1,4.9,9.5,8.6c-2.3,3.7-5.6,6.7-9.5,8.6C53.4,72.7,54.6,69.6,54.6,66.4z M70.6,41.8   C70.6,41.8,70.6,41.8,70.6,41.8l2.3-2.3l0,0c0.8-0.8,2-0.8,2.8,0c0.8,0.8,0.8,2,0,2.8L58.4,59.5c-1-0.9-2-1.7-3.2-2.5L70.6,41.8   L70.6,41.8z M51.1,16c0-1.1,0.9-2,2-2s2,0.9,2,2v19.5c-0.2-0.4-0.4-0.7-0.7-1c-0.9-0.9-2.1-1.3-3.2-1.2V16z M54.3,40.4L54.3,40.4   L54.3,40.4c0.3-0.3,0.5-0.6,0.7-1v5.2l-4.8,4.8c-0.7,0.7-1.8,0.7-2.4,0c-0.7-0.7-0.7-1.8,0-2.4C47.8,47,54.3,40.4,54.3,40.4z    M50.1,36.2c0.7-0.7,1.8-0.7,2.4,0c0.3,0.3,0.5,0.8,0.5,1.2c0,0.5-0.2,0.9-0.5,1.2l-6.5,6.5c-1.6,1.6-1.6,4.3,0,6   c0.8,0.8,1.9,1.2,3,1.2c1.1,0,2.2-0.4,3-1.2l0,0L66,37.2c0.8-0.8,2-0.8,2.8,0c0.4,0.4,0.6,0.9,0.6,1.4c0,0.5-0.2,1-0.6,1.4l0,0   L53,55.8c-3.7-1.9-7.8-3-12-3c-3.1,0-6.2,0.6-9.1,1.7L50.1,36.2z M19.7,23.3c0-0.9,0.8-1.7,1.7-1.7c0.9,0,1.7,0.8,1.7,1.7v9.1   c0,2.3,1.9,4.2,4.2,4.2s4.2-1.9,4.2-4.2V12.7c0-1.1,0.9-2,2-2c1.1,0,2,0.9,2,2v21.8h2.5v-25c0-1.1,0.9-2,2-2c1.1,0,2,0.9,2,2v25   h2.5V12.7c0-1.1,0.9-2,2-2c1.1,0,2,0.9,2,2v21.6c-0.1,0.1-25.1,25.1-25.1,25.1s-2.8,3-3.4,3.9c-0.2-0.9-0.2-1.7-0.2-2.7V23.3z    M80.2,56L80.2,56L50.4,86.7l-1.2,1.2c-3.3,3-7.6,4.7-12.1,4.7c-9.9,0-17.9-8-17.9-17.9l0-0.5c-0.1-1.7,0.2-3.4,0.7-5   C24.7,75.9,32.6,80,41,80c9.2,0,17.7-4.8,22.4-12.7l14-14c0.4-0.4,0.9-0.6,1.4-0.6c0,0,0,0,0,0c0.5,0,1,0.2,1.4,0.6   c0.4,0.4,0.6,0.9,0.6,1.4C80.8,55.1,80.6,55.6,80.2,56z" />
  </symbol>
</svg>
